<?xml version="1.0" encoding="utf-8"?>
<!-- Generator: Adobe Illustrator 25.3.1, SVG Export Plug-In . SVG Version: 6.00 Build 0)  -->
<svg version="1.1" id="Layer_1" xmlns="http://www.w3.org/2000/svg" xmlns:xlink="http://www.w3.org/1999/xlink" x="0px" y="0px"
	 viewBox="0 0 375 150" style="enable-background:new 0 0 375 150;" xml:space="preserve">
<style type="text/css">
	.st0{fill:#AC90B9;}
	.st1{fill:#233D7F;}
	.st2{fill:none;}
	.st3{fill:#774387;}
</style>
<g>
	<path class="st0" d="M52.58,81.3L35,105.44c0.67,0.76,1.34,1.52,2.07,2.24c0.72,0.72,1.48,1.4,2.24,2.06l24.1-17.54l-1.3-9.58
		L52.58,81.3z"/>
	<path class="st0" d="M111.69,35.29l5.91-8.12l-8.12,5.91c0.38,0.36,0.78,0.68,1.15,1.06C111,34.5,111.33,34.9,111.69,35.29z"/>
	<path class="st0" d="M63.42,56.21l-24.1-17.54c-0.76,0.67-1.52,1.34-2.24,2.07c-0.72,0.72-1.4,1.48-2.06,2.24l17.57,24.14
		l9.54-1.34L63.42,56.21z"/>
	<path class="st0" d="M29.41,113.14l-5.91,8.12l8.12-5.91c-0.38-0.36-0.78-0.68-1.15-1.05C30.09,113.92,29.77,113.52,29.41,113.14z"
		/>
	<path class="st0" d="M31.62,33.07l-8.12-5.91l5.91,8.12c0.36-0.38,0.68-0.78,1.06-1.15C30.84,33.76,31.24,33.43,31.62,33.07z"/>
	<path class="st0" d="M109.47,115.35l8.12,5.91l-5.91-8.12c-0.36,0.38-0.68,0.78-1.05,1.15
		C110.26,114.67,109.85,114.99,109.47,115.35z"/>
	<path class="st0" d="M88.55,67.08l17.54-24.1c-0.67-0.76-1.34-1.52-2.07-2.24c-0.72-0.72-1.48-1.4-2.24-2.06l-24.1,17.54l1.3,9.58
		L88.55,67.08z"/>
	<path class="st0" d="M106.09,105.45l-17.54-24.1l-9.58,1.3l-1.3,9.57l24.1,17.54c0.76-0.67,1.52-1.34,2.24-2.07
		C104.75,106.96,105.42,106.21,106.09,105.45z"/>
	<g>
		<path class="st1" d="M101.78,38.67c0.76,0.67,1.51,1.34,2.24,2.06c0.73,0.73,1.4,1.48,2.07,2.24c6.03,6.86,9.73,15.06,11.11,23.58
			l9.64,1.52c-1.29-11.92-6.35-23.48-15.16-32.79c-0.36-0.38-0.69-0.78-1.06-1.16c-0.37-0.37-0.77-0.7-1.15-1.06
			c-9.31-8.81-20.87-13.87-32.79-15.16l1.52,9.64C86.72,28.95,94.92,32.64,101.78,38.67z"/>
		<path class="st1" d="M39.31,109.75c-0.76-0.67-1.51-1.34-2.24-2.06c-0.73-0.73-1.4-1.48-2.07-2.24
			c-6.03-6.86-9.72-15.06-11.11-23.58l-9.64-1.52c1.29,11.92,6.35,23.48,15.16,32.79c0.36,0.38,0.69,0.78,1.06,1.16
			c0.37,0.37,0.77,0.7,1.15,1.05c9.31,8.81,20.87,13.87,32.78,15.16l-1.52-9.64C54.37,119.48,46.17,115.78,39.31,109.75z"/>
		<path class="st1" d="M30.47,34.13c-0.37,0.37-0.7,0.77-1.06,1.15c-8.81,9.31-13.87,20.87-15.16,32.79l9.64-1.52
			c1.39-8.51,5.08-16.71,11.11-23.57c0.67-0.76,1.34-1.51,2.06-2.24c0.73-0.73,1.48-1.4,2.24-2.07c6.86-6.03,15.06-9.72,23.58-11.11
			l1.52-9.64c-11.92,1.29-23.48,6.35-32.79,15.16C31.24,33.43,30.84,33.76,30.47,34.13z"/>
		<path class="st1" d="M106.09,105.45c-0.67,0.76-1.34,1.51-2.06,2.24c-0.73,0.73-1.48,1.4-2.24,2.07
			c-6.86,6.03-15.06,9.73-23.58,11.11l-1.52,9.64c11.92-1.29,23.48-6.35,32.79-15.16c0.38-0.36,0.78-0.69,1.16-1.06
			c0.37-0.37,0.7-0.77,1.05-1.15c8.81-9.31,13.87-20.87,15.16-32.79l-9.64,1.52C115.81,90.39,112.12,98.59,106.09,105.45z"/>
	</g>
	<g>
		<circle class="st2" cx="70.55" cy="74.21" r="5.53"/>
		<path class="st3" d="M88.55,67.08l-9.57-1.3l-1.3-9.58l-7.13-52.7l-7.13,52.7l-1.3,9.57l-9.54,1.34L2.05,74.21l50.53,7.09
			l9.54,1.34l1.3,9.58l7.13,52.7l7.13-52.7l1.3-9.57l9.58-1.3l52.7-7.13L88.55,67.08z M74.46,78.12c-2.16,2.16-5.66,2.16-7.83,0
			s-2.16-5.66,0-7.83s5.66-2.16,7.83,0S76.62,75.96,74.46,78.12z"/>
	</g>
	<g>
		<path class="st1" d="M158.4,69.16l4.17-5.35c3.74,4.17,9.86,8.08,17.85,8.08c10.11,0,13.35-5.44,13.35-9.78
			c0-14.62-33.58-6.55-33.58-26.78c0-9.35,8.33-15.73,19.47-15.73c8.67,0,15.39,2.89,20.15,7.91l-4.25,5.19
			c-4.25-4.68-10.2-6.8-16.41-6.8c-6.8,0-11.65,3.66-11.65,9.01c0,12.75,33.58,5.44,33.58,26.61c0,8.25-5.61,16.66-20.91,16.66
			C170.3,78.17,163.07,74.43,158.4,69.16z"/>
		<path class="st1" d="M207.19,48.84c0-17.43,12.84-29.33,29.16-29.33c10.03,0,17,4.84,21.51,11.22l-5.95,3.31
			c-3.23-4.76-9.09-8.25-15.56-8.25c-12.41,0-21.85,9.52-21.85,23.04c0,13.43,9.44,23.04,21.85,23.04c6.46,0,12.33-3.4,15.56-8.25
			l6.04,3.31c-4.76,6.46-11.56,11.22-21.59,11.22C220.03,78.17,207.19,66.27,207.19,48.84z"/>
		<path class="st1" d="M262.54,48.84c0-17.43,12.84-29.33,29.16-29.33c10.03,0,17,4.84,21.51,11.22l-5.95,3.31
			c-3.23-4.76-9.09-8.25-15.56-8.25c-12.41,0-21.85,9.52-21.85,23.04c0,13.43,9.44,23.04,21.85,23.04c6.46,0,12.33-3.4,15.56-8.25
			l6.04,3.31c-4.76,6.46-11.56,11.22-21.59,11.22C275.38,78.17,262.54,66.27,262.54,48.84z"/>
		<path class="st1" d="M320.18,77.15v-56.7h37.15v6.29h-30.09v18.28h29.5v6.29h-29.5v19.55h30.09v6.29H320.18z"/>
	</g>
	<g>
		<path class="st3" d="M162.84,91.76c-0.64,0-1.16,0.13-1.57,0.39c-0.41,0.26-0.61,0.65-0.61,1.18s0.2,0.93,0.61,1.21
			c0.41,0.28,1.28,0.58,2.61,0.9c1.33,0.32,2.34,0.78,3.01,1.36c0.67,0.58,1.01,1.44,1.01,2.57s-0.43,2.05-1.28,2.76
			c-0.86,0.71-1.98,1.06-3.37,1.06c-2.03,0-3.83-0.7-5.41-2.1l1.37-1.65c1.31,1.14,2.68,1.71,4.09,1.71c0.71,0,1.27-0.15,1.68-0.46
			c0.42-0.3,0.62-0.71,0.62-1.21c0-0.5-0.19-0.89-0.59-1.17c-0.39-0.28-1.06-0.53-2.02-0.76c-0.96-0.23-1.68-0.44-2.18-0.63
			c-0.49-0.19-0.93-0.44-1.32-0.75c-0.77-0.58-1.15-1.47-1.15-2.68c0-1.2,0.44-2.13,1.31-2.78c0.87-0.65,1.95-0.98,3.24-0.98
			c0.83,0,1.65,0.13,2.47,0.41c0.82,0.27,1.53,0.66,2.12,1.15l-1.17,1.65c-0.38-0.35-0.91-0.63-1.56-0.86
			C164.12,91.88,163.48,91.76,162.84,91.76z"/>
		<path class="st3" d="M178.59,101.72c-0.99,0.98-2.23,1.48-3.72,1.48c-1.49,0-2.73-0.49-3.72-1.48s-1.49-2.19-1.49-3.62
			c0-1.42,0.49-2.63,1.49-3.62s2.23-1.48,3.72-1.48c1.49,0,2.72,0.49,3.72,1.48s1.49,2.19,1.49,3.62
			C180.08,99.53,179.58,100.73,178.59,101.72z M172.63,100.44c0.59,0.6,1.34,0.9,2.24,0.9c0.9,0,1.65-0.3,2.24-0.9
			S178,99.06,178,98.1s-0.3-1.73-0.88-2.33c-0.59-0.6-1.34-0.9-2.24-0.9c-0.91,0-1.65,0.3-2.24,0.9c-0.59,0.6-0.88,1.38-0.88,2.33
			S172.05,99.84,172.63,100.44z"/>
		<path class="st3" d="M186.83,103.2c-1.38,0-2.56-0.47-3.55-1.4c-0.99-0.94-1.49-2.16-1.49-3.67c0-1.51,0.52-2.74,1.55-3.69
			c1.04-0.95,2.3-1.42,3.78-1.42s2.74,0.52,3.77,1.54l-1.23,1.51c-0.86-0.74-1.72-1.12-2.58-1.12c-0.87,0-1.62,0.29-2.26,0.86
			c-0.64,0.58-0.96,1.32-0.96,2.23c0,0.91,0.31,1.68,0.95,2.31c0.63,0.63,1.41,0.95,2.33,0.95c0.92,0,1.79-0.42,2.61-1.27l1.23,1.34
			C189.79,102.59,188.4,103.2,186.83,103.2z"/>
		<path class="st3" d="M193.28,91.19c-0.26-0.26-0.39-0.57-0.39-0.93c0-0.36,0.13-0.67,0.39-0.93c0.26-0.26,0.57-0.39,0.93-0.39
			c0.36,0,0.67,0.13,0.93,0.39c0.26,0.26,0.39,0.57,0.39,0.93c0,0.36-0.13,0.67-0.39,0.93c-0.26,0.26-0.57,0.39-0.93,0.39
			C193.84,91.58,193.53,91.45,193.28,91.19z M195.23,103.05h-2.08v-9.89h2.08V103.05z"/>
		<path class="st3" d="M207.44,99.01h-7.75c0.05,0.72,0.38,1.3,0.98,1.74c0.61,0.44,1.3,0.66,2.08,0.66c1.24,0,2.18-0.39,2.82-1.17
			l1.19,1.3c-1.07,1.1-2.45,1.65-4.17,1.65c-1.39,0-2.57-0.46-3.54-1.39c-0.97-0.92-1.46-2.16-1.46-3.72c0-1.56,0.49-2.79,1.49-3.71
			c0.99-0.92,2.16-1.38,3.5-1.38c1.35,0,2.49,0.41,3.43,1.22c0.94,0.81,1.41,1.93,1.41,3.36V99.01z M199.69,97.38h5.67
			c0-0.83-0.26-1.47-0.78-1.91c-0.52-0.45-1.16-0.67-1.92-0.67c-0.76,0-1.45,0.23-2.05,0.7C199.99,95.96,199.69,96.59,199.69,97.38z
			"/>
		<path class="st3" d="M212.22,94.83v5.02c0,0.47,0.12,0.85,0.37,1.12c0.25,0.28,0.6,0.42,1.04,0.42c0.44,0,0.87-0.22,1.28-0.65
			l0.86,1.47c-0.73,0.66-1.54,0.98-2.43,0.98c-0.89,0-1.64-0.31-2.27-0.92c-0.63-0.61-0.94-1.44-0.94-2.48v-4.96h-1.24v-1.67h1.24
			v-3.1h2.08v3.1h2.6v1.67H212.22z"/>
		<path class="st3" d="M218.66,106.99c-0.9,0-1.72-0.33-2.45-0.98l0.95-1.69c0.43,0.41,0.88,0.61,1.35,0.61
			c0.47,0,0.84-0.17,1.13-0.5c0.29-0.34,0.44-0.7,0.44-1.1c0-0.17-1.33-3.56-3.99-10.17h2.23l2.96,7.29l2.95-7.29h2.23l-4.79,11.75
			c-0.29,0.64-0.69,1.15-1.23,1.52C219.9,106.8,219.31,106.99,218.66,106.99z"/>
		<path class="st3" d="M241.45,101.72c-0.99,0.98-2.23,1.48-3.72,1.48c-1.49,0-2.73-0.49-3.72-1.48s-1.49-2.19-1.49-3.62
			c0-1.42,0.49-2.63,1.49-3.62s2.23-1.48,3.72-1.48c1.49,0,2.72,0.49,3.72,1.48c0.99,0.98,1.49,2.19,1.49,3.62
			C242.94,99.53,242.44,100.73,241.45,101.72z M235.49,100.44c0.59,0.6,1.34,0.9,2.24,0.9c0.9,0,1.65-0.3,2.24-0.9
			c0.59-0.6,0.88-1.38,0.88-2.33s-0.3-1.73-0.88-2.33c-0.59-0.6-1.34-0.9-2.24-0.9c-0.91,0-1.65,0.3-2.24,0.9
			c-0.59,0.6-0.88,1.38-0.88,2.33S234.9,99.84,235.49,100.44z"/>
		<path class="st3" d="M247.71,92.34v0.82h2.6v1.67h-2.6v8.21h-2.08v-8.21h-1.24v-1.67h1.24V92.4c0-1.04,0.31-1.87,0.94-2.48
			c0.62-0.61,1.38-0.92,2.27-0.92c0.89,0,1.69,0.33,2.43,0.98l-0.86,1.47c-0.41-0.43-0.84-0.65-1.28-0.65
			c-0.45,0-0.79,0.14-1.04,0.42C247.84,91.5,247.71,91.87,247.71,92.34z"/>
		<path class="st3" d="M263.64,101.06c0.76,0,1.41-0.13,1.95-0.38c0.55-0.25,1.12-0.66,1.71-1.22l1.41,1.45
			c-1.37,1.53-3.04,2.29-5.01,2.29s-3.59-0.63-4.89-1.9c-1.29-1.27-1.94-2.86-1.94-4.8c0-1.93,0.66-3.54,1.98-4.83
			c1.32-1.29,2.99-1.93,5-1.93s3.7,0.74,5.05,2.23l-1.39,1.53c-0.62-0.6-1.21-1.01-1.76-1.25c-0.55-0.24-1.2-0.35-1.94-0.35
			c-1.31,0-2.42,0.43-3.31,1.27c-0.89,0.85-1.34,1.93-1.34,3.25c0,1.32,0.44,2.42,1.33,3.31
			C261.38,100.62,262.43,101.06,263.64,101.06z"/>
		<path class="st3" d="M279.09,101.72c-0.99,0.98-2.23,1.48-3.72,1.48c-1.49,0-2.73-0.49-3.72-1.48s-1.49-2.19-1.49-3.62
			c0-1.42,0.49-2.63,1.49-3.62s2.23-1.48,3.72-1.48c1.49,0,2.72,0.49,3.72,1.48s1.49,2.19,1.49,3.62
			C280.57,99.53,280.08,100.73,279.09,101.72z M273.13,100.44c0.59,0.6,1.34,0.9,2.24,0.9c0.9,0,1.65-0.3,2.24-0.9
			s0.88-1.38,0.88-2.33s-0.3-1.73-0.88-2.33c-0.59-0.6-1.34-0.9-2.24-0.9c-0.91,0-1.65,0.3-2.24,0.9c-0.59,0.6-0.88,1.38-0.88,2.33
			S272.54,99.84,273.13,100.44z"/>
		<path class="st3" d="M288.12,95.11c-1.03,0-1.8,0.33-2.33,1c-0.52,0.67-0.78,1.57-0.78,2.7v4.24h-2.08v-9.89h2.08v1.99
			c0.34-0.62,0.79-1.13,1.37-1.52c0.58-0.4,1.19-0.6,1.83-0.61l0.02,2.1C288.2,95.11,288.16,95.11,288.12,95.11z"/>
		<path class="st3" d="M295.61,93.01c1.33,0,2.46,0.46,3.4,1.38c0.94,0.92,1.41,2.14,1.41,3.66c0,1.53-0.47,2.76-1.4,3.72
			c-0.94,0.95-2.02,1.43-3.27,1.43c-1.24,0-2.36-0.55-3.36-1.64v5.09h-2.08V93.16h2.08v1.73C293.21,93.64,294.29,93.01,295.61,93.01
			z M292.36,98.12c0,0.94,0.29,1.72,0.86,2.32s1.26,0.9,2.08,0.9c0.82,0,1.53-0.3,2.14-0.89c0.61-0.6,0.91-1.37,0.91-2.32
			c0-0.95-0.3-1.73-0.89-2.36c-0.59-0.63-1.31-0.94-2.14-0.94c-0.83,0-1.53,0.31-2.1,0.94C292.64,96.4,292.36,97.18,292.36,98.12z"
			/>
		<path class="st3" d="M311.08,101.72c-0.99,0.98-2.23,1.48-3.72,1.48c-1.49,0-2.73-0.49-3.72-1.48s-1.49-2.19-1.49-3.62
			c0-1.42,0.49-2.63,1.49-3.62s2.23-1.48,3.72-1.48c1.49,0,2.72,0.49,3.72,1.48s1.49,2.19,1.49,3.62
			C312.56,99.53,312.07,100.73,311.08,101.72z M305.12,100.44c0.59,0.6,1.34,0.9,2.24,0.9c0.9,0,1.65-0.3,2.24-0.9
			s0.88-1.38,0.88-2.33s-0.3-1.73-0.88-2.33c-0.59-0.6-1.34-0.9-2.24-0.9c-0.91,0-1.65,0.3-2.24,0.9c-0.59,0.6-0.88,1.38-0.88,2.33
			S304.53,99.84,305.12,100.44z"/>
		<path class="st3" d="M320.11,95.11c-1.03,0-1.8,0.33-2.33,1c-0.52,0.67-0.78,1.57-0.78,2.7v4.24h-2.08v-9.89H317v1.99
			c0.34-0.62,0.79-1.13,1.37-1.52c0.58-0.4,1.19-0.6,1.83-0.61l0.02,2.1C320.18,95.11,320.15,95.11,320.11,95.11z"/>
		<path class="st3" d="M330.22,103.05h-1.9v-1.32c-0.82,0.98-1.91,1.47-3.29,1.47c-1.03,0-1.88-0.29-2.56-0.87
			c-0.67-0.58-1.01-1.36-1.01-2.33s0.36-1.7,1.08-2.18c0.72-0.48,1.69-0.73,2.92-0.73h2.7v-0.37c0-1.31-0.73-1.97-2.19-1.97
			c-0.92,0-1.87,0.33-2.86,1l-0.93-1.3c1.2-0.95,2.57-1.43,4.09-1.43c1.16,0,2.11,0.3,2.85,0.88c0.74,0.59,1.11,1.52,1.11,2.78
			V103.05z M328.14,99.37v-0.84h-2.34c-1.5,0-2.25,0.47-2.25,1.41c0,0.48,0.18,0.85,0.56,1.1s0.89,0.38,1.55,0.38
			s1.24-0.19,1.74-0.56C327.89,100.5,328.14,100,328.14,99.37z"/>
		<path class="st3" d="M335.57,94.83v5.02c0,0.47,0.12,0.85,0.37,1.12c0.25,0.28,0.6,0.42,1.04,0.42c0.44,0,0.87-0.22,1.28-0.65
			l0.86,1.47c-0.73,0.66-1.54,0.98-2.43,0.98s-1.64-0.31-2.27-0.92c-0.63-0.61-0.94-1.44-0.94-2.48v-4.96h-1.24v-1.67h1.24v-3.1
			h2.08v3.1h2.6v1.67H335.57z"/>
		<path class="st3" d="M349.98,99.01h-7.75c0.05,0.72,0.38,1.3,0.98,1.74c0.61,0.44,1.3,0.66,2.08,0.66c1.24,0,2.18-0.39,2.82-1.17
			l1.19,1.3c-1.07,1.1-2.45,1.65-4.17,1.65c-1.39,0-2.57-0.46-3.54-1.39c-0.97-0.92-1.46-2.16-1.46-3.72c0-1.56,0.49-2.79,1.49-3.71
			c0.99-0.92,2.16-1.38,3.5-1.38c1.35,0,2.49,0.41,3.43,1.22c0.94,0.81,1.41,1.93,1.41,3.36V99.01z M342.23,97.38h5.67
			c0-0.83-0.26-1.47-0.78-1.91c-0.52-0.45-1.16-0.67-1.92-0.67c-0.76,0-1.45,0.23-2.05,0.7C342.53,95.96,342.23,96.59,342.23,97.38z
			"/>
		<path class="st3" d="M164.84,123.36c0.76,0,1.41-0.13,1.95-0.38c0.55-0.25,1.12-0.66,1.71-1.22l1.41,1.45
			c-1.37,1.53-3.04,2.29-5.01,2.29s-3.59-0.63-4.89-1.9c-1.29-1.27-1.94-2.86-1.94-4.8c0-1.93,0.66-3.54,1.98-4.83
			c1.32-1.29,2.99-1.93,5-1.93c2.01,0,3.7,0.74,5.05,2.23l-1.39,1.53c-0.62-0.6-1.21-1.01-1.76-1.25c-0.55-0.24-1.2-0.35-1.94-0.35
			c-1.31,0-2.42,0.43-3.31,1.27c-0.89,0.85-1.34,1.93-1.34,3.25c0,1.32,0.44,2.42,1.33,3.31
			C162.57,122.92,163.62,123.36,164.84,123.36z"/>
		<path class="st3" d="M180.28,124.02c-0.99,0.98-2.23,1.48-3.72,1.48c-1.49,0-2.73-0.49-3.72-1.48s-1.49-2.19-1.49-3.62
			c0-1.42,0.49-2.63,1.49-3.62s2.23-1.48,3.72-1.48c1.49,0,2.72,0.49,3.72,1.48c0.99,0.98,1.49,2.19,1.49,3.62
			C181.77,121.83,181.27,123.04,180.28,124.02z M174.33,122.74c0.59,0.6,1.34,0.9,2.24,0.9c0.9,0,1.65-0.3,2.24-0.9
			c0.59-0.6,0.88-1.38,0.88-2.33s-0.3-1.73-0.88-2.33c-0.59-0.6-1.34-0.9-2.24-0.9c-0.91,0-1.65,0.3-2.24,0.9
			c-0.59,0.6-0.88,1.38-0.88,2.33S173.74,122.14,174.33,122.74z"/>
		<path class="st3" d="M186.21,120v5.35h-2.08v-9.89h2.08v1.8c0.3-0.61,0.75-1.08,1.35-1.43c0.6-0.35,1.25-0.52,1.94-0.52
			c1.56,0,2.62,0.65,3.18,1.93c0.98-1.29,2.2-1.93,3.66-1.93c1.11,0,2.02,0.34,2.7,1.02c0.69,0.68,1.03,1.67,1.03,2.95v6.06h-2.08
			v-5.43c0-1.82-0.75-2.73-2.27-2.73c-0.71,0-1.32,0.23-1.85,0.68c-0.53,0.45-0.8,1.11-0.83,1.98v5.5h-2.08v-5.43
			c0-0.94-0.17-1.63-0.5-2.07c-0.33-0.44-0.86-0.66-1.58-0.66c-0.72,0-1.35,0.24-1.88,0.72S186.21,119.08,186.21,120z"/>
		<path class="st3" d="M208.27,115.31c1.33,0,2.46,0.46,3.4,1.38c0.94,0.92,1.41,2.14,1.41,3.66c0,1.53-0.47,2.76-1.4,3.72
			c-0.94,0.95-2.02,1.43-3.27,1.43c-1.24,0-2.36-0.55-3.36-1.64v5.09h-2.08v-13.49h2.08v1.73
			C205.88,115.94,206.95,115.31,208.27,115.31z M205.02,120.43c0,0.94,0.29,1.72,0.86,2.32c0.57,0.6,1.26,0.9,2.08,0.9
			c0.82,0,1.53-0.3,2.14-0.89c0.61-0.6,0.91-1.37,0.91-2.32c0-0.95-0.3-1.73-0.89-2.36c-0.59-0.63-1.31-0.94-2.14-0.94
			c-0.83,0-1.53,0.31-2.1,0.94C205.31,118.7,205.02,119.48,205.02,120.43z"/>
		<path class="st3" d="M217.55,125.35h-2.08v-13.79h2.08V125.35z"/>
		<path class="st3" d="M220.69,113.49c-0.26-0.26-0.39-0.57-0.39-0.93c0-0.36,0.13-0.67,0.39-0.93c0.26-0.26,0.57-0.39,0.93-0.39
			c0.36,0,0.67,0.13,0.93,0.39c0.26,0.26,0.39,0.57,0.39,0.93c0,0.36-0.13,0.67-0.39,0.93c-0.26,0.26-0.57,0.39-0.93,0.39
			C221.26,113.89,220.95,113.75,220.69,113.49z M222.64,125.35h-2.08v-9.89h2.08V125.35z"/>
		<path class="st3" d="M233.66,125.35h-1.9v-1.32c-0.82,0.98-1.91,1.47-3.29,1.47c-1.03,0-1.88-0.29-2.56-0.87
			c-0.67-0.58-1.01-1.36-1.01-2.33c0-0.97,0.36-1.7,1.08-2.18c0.72-0.48,1.69-0.73,2.92-0.73h2.7v-0.37c0-1.31-0.73-1.97-2.19-1.97
			c-0.92,0-1.87,0.33-2.86,1l-0.93-1.3c1.2-0.95,2.57-1.43,4.09-1.43c1.16,0,2.11,0.3,2.85,0.88c0.74,0.59,1.11,1.52,1.11,2.78
			V125.35z M231.58,121.67v-0.84h-2.34c-1.5,0-2.25,0.47-2.25,1.41c0,0.48,0.18,0.85,0.56,1.1s0.89,0.38,1.55,0.38
			c0.66,0,1.24-0.19,1.74-0.56C231.33,122.81,231.58,122.3,231.58,121.67z"/>
		<path class="st3" d="M238.64,120v5.35h-2.08v-9.89h2.08v1.8c0.34-0.61,0.8-1.08,1.39-1.43c0.59-0.35,1.22-0.52,1.9-0.52
			c1.11,0,2.02,0.34,2.7,1.02s1.03,1.67,1.03,2.95v6.06h-2.08v-5.43c0-1.82-0.76-2.73-2.27-2.73c-0.72,0-1.35,0.24-1.88,0.72
			S238.64,119.08,238.64,120z"/>
		<path class="st3" d="M252.96,125.5c-1.38,0-2.56-0.47-3.55-1.4c-0.99-0.94-1.49-2.16-1.49-3.67c0-1.51,0.52-2.74,1.55-3.69
			c1.04-0.95,2.3-1.42,3.78-1.42c1.49,0,2.74,0.52,3.77,1.54l-1.23,1.51c-0.86-0.74-1.72-1.12-2.58-1.12
			c-0.87,0-1.62,0.29-2.26,0.86c-0.64,0.58-0.96,1.32-0.96,2.23c0,0.91,0.31,1.68,0.95,2.31c0.63,0.63,1.41,0.95,2.33,0.95
			c0.92,0,1.79-0.42,2.61-1.27l1.23,1.34C255.92,124.89,254.53,125.5,252.96,125.5z"/>
		<path class="st3" d="M268.48,121.32h-7.75c0.05,0.72,0.38,1.3,0.98,1.74c0.61,0.44,1.3,0.66,2.08,0.66c1.24,0,2.18-0.39,2.82-1.17
			l1.19,1.3c-1.07,1.1-2.45,1.65-4.17,1.65c-1.39,0-2.57-0.46-3.54-1.39c-0.97-0.92-1.46-2.16-1.46-3.72c0-1.56,0.49-2.79,1.49-3.71
			c0.99-0.92,2.16-1.38,3.5-1.38c1.35,0,2.49,0.41,3.43,1.22c0.94,0.81,1.41,1.93,1.41,3.36V121.32z M260.72,119.68h5.67
			c0-0.83-0.26-1.47-0.78-1.91c-0.52-0.45-1.16-0.67-1.92-0.67c-0.76,0-1.45,0.23-2.05,0.7
			C261.03,118.26,260.72,118.89,260.72,119.68z"/>
		<path class="st3" d="M283.87,125.35h-1.9v-1.32c-0.82,0.98-1.91,1.47-3.29,1.47c-1.03,0-1.88-0.29-2.56-0.87
			c-0.67-0.58-1.01-1.36-1.01-2.33c0-0.97,0.36-1.7,1.08-2.18c0.72-0.48,1.69-0.73,2.92-0.73h2.7v-0.37c0-1.31-0.73-1.97-2.19-1.97
			c-0.92,0-1.87,0.33-2.86,1l-0.93-1.3c1.2-0.95,2.57-1.43,4.09-1.43c1.16,0,2.11,0.3,2.85,0.88c0.74,0.59,1.11,1.52,1.11,2.78
			V125.35z M281.78,121.67v-0.84h-2.34c-1.5,0-2.25,0.47-2.25,1.41c0,0.48,0.18,0.85,0.56,1.1s0.89,0.38,1.55,0.38
			c0.66,0,1.24-0.19,1.74-0.56C281.54,122.81,281.78,122.3,281.78,121.67z"/>
		<path class="st3" d="M288.84,120v5.35h-2.08v-9.89h2.08v1.8c0.34-0.61,0.8-1.08,1.39-1.43c0.59-0.35,1.22-0.52,1.9-0.52
			c1.11,0,2.02,0.34,2.7,1.02s1.03,1.67,1.03,2.95v6.06h-2.08v-5.43c0-1.82-0.76-2.73-2.27-2.73c-0.72,0-1.35,0.24-1.88,0.72
			C289.11,118.39,288.84,119.08,288.84,120z"/>
		<path class="st3" d="M299.53,124.09c-0.93-0.94-1.39-2.18-1.39-3.72c0-1.53,0.48-2.76,1.43-3.68c0.95-0.92,2.09-1.38,3.41-1.38
			c1.32,0,2.38,0.56,3.19,1.67v-5.43h2.08v13.79h-2.08v-1.49c-0.77,1.09-1.89,1.64-3.36,1.64
			C301.55,125.5,300.46,125.03,299.53,124.09z M300.22,120.45c0,0.95,0.31,1.72,0.91,2.31c0.61,0.6,1.32,0.89,2.14,0.89
			c0.82,0,1.51-0.3,2.08-0.9c0.57-0.6,0.86-1.37,0.86-2.32s-0.29-1.73-0.86-2.36c-0.57-0.63-1.27-0.95-2.1-0.95
			c-0.83,0-1.54,0.31-2.14,0.95C300.52,118.72,300.22,119.51,300.22,120.45z"/>
		<path class="st3" d="M325.78,112.36v2.06h-6.93v3.44h6.23v1.95h-6.23v3.48H326v2.06h-9.35v-12.99H325.78z"/>
		<path class="st3" d="M330.93,117.14v5.02c0,0.47,0.12,0.85,0.37,1.12c0.25,0.28,0.6,0.42,1.04,0.42c0.44,0,0.87-0.22,1.28-0.65
			l0.86,1.47c-0.73,0.66-1.54,0.98-2.43,0.98c-0.89,0-1.64-0.31-2.27-0.92c-0.63-0.61-0.94-1.44-0.94-2.48v-4.96h-1.24v-1.67h1.24
			v-3.1h2.08v3.1h2.6v1.67H330.93z"/>
		<path class="st3" d="M338.21,120v5.35h-2.08v-13.77h2.08v5.69c0.3-0.61,0.75-1.08,1.35-1.43c0.6-0.35,1.25-0.52,1.94-0.52
			c1.11,0,2.02,0.34,2.7,1.02s1.03,1.67,1.03,2.95v6.06h-2.08v-5.43c0-1.82-0.76-2.73-2.27-2.73c-0.72,0-1.35,0.24-1.88,0.72
			C338.48,118.39,338.21,119.08,338.21,120z"/>
		<path class="st3" d="M348.27,113.49c-0.26-0.26-0.39-0.57-0.39-0.93c0-0.36,0.13-0.67,0.39-0.93c0.26-0.26,0.57-0.39,0.93-0.39
			c0.36,0,0.67,0.13,0.93,0.39c0.26,0.26,0.39,0.57,0.39,0.93c0,0.36-0.13,0.67-0.39,0.93c-0.26,0.26-0.57,0.39-0.93,0.39
			C348.84,113.89,348.53,113.75,348.27,113.49z M350.22,125.35h-2.08v-9.89h2.08V125.35z"/>
		<path class="st3" d="M357.62,125.5c-1.38,0-2.56-0.47-3.55-1.4c-0.99-0.94-1.49-2.16-1.49-3.67c0-1.51,0.52-2.74,1.55-3.69
			c1.04-0.95,2.3-1.42,3.78-1.42s2.74,0.52,3.77,1.54l-1.23,1.51c-0.86-0.74-1.72-1.12-2.58-1.12s-1.62,0.29-2.26,0.86
			c-0.64,0.58-0.96,1.32-0.96,2.23c0,0.91,0.31,1.68,0.95,2.31c0.63,0.63,1.41,0.95,2.33,0.95c0.92,0,1.79-0.42,2.61-1.27l1.23,1.34
			C360.58,124.89,359.19,125.5,357.62,125.5z"/>
		<path class="st3" d="M370.91,122.4c0,0.94-0.34,1.69-1.02,2.26c-0.68,0.56-1.56,0.85-2.62,0.85c-0.72,0-1.47-0.13-2.24-0.39
			c-0.77-0.26-1.46-0.62-2.05-1.1l1-1.62c1.15,0.87,2.27,1.3,3.35,1.3c0.47,0,0.84-0.11,1.11-0.32c0.27-0.22,0.41-0.49,0.41-0.83
			c0-0.5-0.66-0.94-1.97-1.34c-0.1-0.04-0.17-0.06-0.22-0.07c-2.06-0.56-3.08-1.49-3.08-2.79c0-0.92,0.36-1.65,1.07-2.2
			c0.71-0.55,1.64-0.83,2.78-0.83c1.14,0,2.22,0.34,3.23,1l-0.78,1.54c-0.8-0.53-1.68-0.8-2.62-0.8c-0.49,0-0.9,0.09-1.21,0.27
			c-0.31,0.18-0.46,0.45-0.46,0.81c0,0.32,0.16,0.56,0.48,0.71c0.22,0.11,0.54,0.22,0.94,0.31c0.4,0.1,0.76,0.2,1.07,0.3
			c0.31,0.1,0.61,0.21,0.9,0.33c0.29,0.12,0.6,0.3,0.94,0.52C370.57,120.76,370.91,121.46,370.91,122.4z"/>
	</g>
</g>
<g>
	<path class="st1" d="M362.46,23.68c0-2.32,1.87-4.17,4.17-4.17c2.32,0,4.17,1.85,4.17,4.17c0,2.3-1.85,4.17-4.17,4.17
		C364.32,27.85,362.46,25.98,362.46,23.68z M362.99,23.68c0,1.99,1.63,3.64,3.64,3.64c2.01,0,3.62-1.65,3.62-3.64
		c0-2.02-1.61-3.62-3.62-3.62C364.62,20.07,362.99,21.66,362.99,23.68z M366.54,24.19h-0.9v1.89h-0.59V21.3H367
		c0.83,0,1.47,0.57,1.47,1.45c0,1.06-0.94,1.41-1.22,1.41l1.28,1.91h-0.75L366.54,24.19z M365.64,21.85v1.77H367
		c0.51,0,0.86-0.37,0.86-0.87c0-0.53-0.35-0.9-0.86-0.9H365.64z"/>
</g>
</svg>
